<svg width="117" height="76" viewBox="0 0 117 76" fill="none" xmlns="http://www.w3.org/2000/svg">
<path d="M53.1094 75.0469C51.0781 75.0469 49.0156 74.8594 46.9219 74.4844C44.8594 74.1406 42.7656 73.6719 40.6406 73.0781C38.5156 72.5156 36.3906 71.8906 34.2656 71.2031C32.1406 70.5156 30.0469 69.8438 27.9844 69.1875C25.5156 70.6875 22.9375 71.8594 20.25 72.7031C17.5625 73.5781 14.7344 74.0156 11.7656 74.0156C9.23438 74.0156 7.29688 73.5625 5.95312 72.6562C4.60938 71.75 3.9375 70.5469 3.9375 69.0469C3.9375 67.0781 5.03125 65.5625 7.21875 64.5C9.40625 63.4375 12.7188 62.9062 17.1562 62.9062C19.0938 62.9062 21.0469 63.0469 23.0156 63.3281C24.9844 63.6094 26.9844 63.9688 29.0156 64.4062C30.9844 62.6875 32.8594 60.75 34.6406 58.5938C36.4219 56.4375 38.1562 54.125 39.8438 51.6562C38.5625 51.8125 37.2656 51.9375 35.9531 52.0312C34.6406 52.0938 33.3125 52.125 31.9688 52.125C27.0625 52.125 22.6875 51.5469 18.8438 50.3906C15 49.2031 11.75 47.5938 9.09375 45.5625C6.4375 43.5 4.40625 41.0938 3 38.3438C1.625 35.5625 0.9375 32.5781 0.9375 29.3906C0.9375 25.6406 1.65625 22.3125 3.09375 19.4062C4.53125 16.5 6.5 14.0625 9 12.0938C11.5312 10.0937 14.5 8.57812 17.9062 7.54688C21.3125 6.48437 24.9688 5.95312 28.875 5.95312C31.3438 5.95312 33.5938 6.14062 35.625 6.51562C37.6562 6.89062 39.4062 7.29688 40.875 7.73438C42.375 8.17187 43.5469 8.59375 44.3906 9C45.2344 9.40625 45.7031 9.625 45.7969 9.65625L44.5781 11.7656C44.5469 11.7656 44.1562 11.5937 43.4062 11.25C42.6562 10.875 41.625 10.4844 40.3125 10.0781C39 9.67187 37.4375 9.29687 35.625 8.95312C33.8125 8.60938 31.8594 8.4375 29.7656 8.4375C26.0781 8.4375 22.7656 8.98438 19.8281 10.0781C16.9219 11.1406 14.4531 12.6094 12.4219 14.4844C10.4219 16.3594 8.875 18.5625 7.78125 21.0938C6.71875 23.5938 6.1875 26.2656 6.1875 29.1094C6.1875 32.2969 6.92188 35.1562 8.39062 37.6875C9.85938 40.1875 11.8281 42.3125 14.2969 44.0625C16.7656 45.7812 19.625 47.0938 22.875 48C26.1562 48.9062 29.5938 49.3594 33.1875 49.3594C34.6562 49.3594 36.0938 49.3125 37.5 49.2188C38.9375 49.125 40.3594 48.9688 41.7656 48.75C43.9844 45.2812 46.125 41.6875 48.1875 37.9688C50.2812 34.25 52.3594 30.6094 54.4219 27.0469C56.4844 23.4844 58.5625 20.1094 60.6562 16.9219C62.75 13.7031 64.9219 10.8906 67.1719 8.48438C69.4531 6.07813 71.8438 4.17188 74.3438 2.76562C76.8438 1.32812 79.5312 0.609375 82.4062 0.609375C83.5312 0.609375 84.5781 0.796875 85.5469 1.17188C86.5156 1.51562 87.3594 2.0625 88.0781 2.8125C88.7969 3.53125 89.3594 4.45312 89.7656 5.57812C90.1719 6.70312 90.375 8.01562 90.375 9.51562C90.375 11.9531 89.9062 14.5312 88.9688 17.25C88.0312 19.9375 86.6719 22.6406 84.8906 25.3594C83.1094 28.0469 80.9375 30.7031 78.375 33.3281C75.8125 35.9219 72.9062 38.3281 69.6562 40.5469C66.4062 42.7656 62.8438 44.75 58.9688 46.5C55.0938 48.2188 50.9688 49.5625 46.5938 50.5312C44.5312 53.375 42.4062 56.0625 40.2188 58.5938C38.0312 61.0938 35.7188 63.3594 33.2812 65.3906C35.6562 66.0156 37.9844 66.6875 40.2656 67.4062C42.5469 68.0938 44.7031 68.7188 46.7344 69.2812C48.7969 69.875 50.7031 70.3594 52.4531 70.7344C54.2031 71.1406 55.75 71.3438 57.0938 71.3438C59.0938 71.3438 61.0156 71 62.8594 70.3125C64.7344 69.625 66.5938 68.4062 68.4375 66.6562L70.3594 68.1562C70.3281 68.1875 70.1562 68.3906 69.8438 68.7656C69.5312 69.1094 69.0625 69.5312 68.4375 70.0312C67.8125 70.5625 67.0312 71.1094 66.0938 71.6719C65.1562 72.2656 64.0469 72.8125 62.7656 73.3125C61.5156 73.8125 60.0781 74.2188 58.4531 74.5312C56.8594 74.875 55.0781 75.0469 53.1094 75.0469ZM82.5938 3.1875C80.8438 3.1875 79.1094 3.8125 77.3906 5.0625C75.6719 6.3125 73.9375 8.01562 72.1875 10.1719C70.4375 12.2969 68.6562 14.8125 66.8438 17.7188C65.0625 20.5938 63.2188 23.6719 61.3125 26.9531C59.4062 30.2031 57.4219 33.5625 55.3594 37.0312C53.2969 40.5 51.1406 43.9062 48.8906 47.25C52.6406 46.2188 56.2031 44.875 59.5781 43.2188C62.9844 41.5625 66.125 39.7031 69 37.6406C71.9062 35.5781 74.5156 33.375 76.8281 31.0312C79.1719 28.6562 81.1562 26.2344 82.7812 23.7656C84.4375 21.2969 85.7031 18.8594 86.5781 16.4531C87.4531 14.0156 87.8906 11.6875 87.8906 9.46875C87.8906 8.3125 87.75 7.34375 87.4688 6.5625C87.1875 5.75 86.7969 5.09375 86.2969 4.59375C85.8281 4.09375 85.2656 3.73438 84.6094 3.51562C83.9844 3.29687 83.3125 3.1875 82.5938 3.1875ZM11.4844 71.5781C13.7969 71.5781 15.9844 71.25 18.0469 70.5938C20.1094 69.9688 22.1094 69.0938 24.0469 67.9688C21.9844 67.375 19.9844 66.8906 18.0469 66.5156C16.1406 66.1406 14.2969 65.9531 12.5156 65.9531C10.3906 65.9531 8.82812 66.2656 7.82812 66.8906C6.85938 67.5156 6.375 68.2344 6.375 69.0469C6.375 69.2969 6.4375 69.5625 6.5625 69.8438C6.71875 70.1562 6.98438 70.4375 7.35938 70.6875C7.73438 70.9375 8.25 71.1406 8.90625 71.2969C9.5625 71.4844 10.4219 71.5781 11.4844 71.5781ZM102.079 1.59375C100.516 3.25 99.0631 4.98437 97.7194 6.79688C100.657 8.42188 103.266 10.375 105.548 12.6562C107.86 14.9062 109.798 17.3906 111.36 20.1094C112.954 22.8281 114.157 25.75 114.969 28.875C115.813 31.9688 116.235 35.1719 116.235 38.4844C116.235 41.4219 115.938 44.3438 115.344 47.25C114.782 50.1562 113.876 52.9375 112.626 55.5938C111.407 58.2188 109.844 60.6719 107.938 62.9531C106.032 65.2031 103.751 67.1719 101.094 68.8594C98.4381 70.5156 95.4069 71.8125 92.0006 72.75C88.5944 73.7188 84.7663 74.2031 80.5163 74.2031C76.735 74.2031 73.1413 73.8438 69.735 73.125C66.3288 72.4375 63.0631 71.6719 59.9381 70.8281C57.5319 72.4531 54.8913 73.7188 52.0163 74.625C49.1725 75.5312 45.9538 75.9844 42.36 75.9844C40.8913 75.9844 39.6256 75.8438 38.5631 75.5625C37.5006 75.3125 36.6256 74.9531 35.9381 74.4844C35.2819 74.0156 34.7819 73.4688 34.4381 72.8438C34.1256 72.25 33.9694 71.625 33.9694 70.9688C33.9694 70.1875 34.1569 69.4531 34.5319 68.7656C34.9381 68.0469 35.5319 67.4219 36.3131 66.8906C37.1256 66.3594 38.1413 65.9375 39.36 65.625C40.61 65.3125 42.0631 65.1562 43.7194 65.1562C46.0006 65.1562 48.2663 65.4062 50.5163 65.9062C52.7975 66.375 55.11 66.9219 57.4538 67.5469C59.735 65.4844 61.8131 63.0156 63.6881 60.1406C65.5944 57.2344 67.4069 54.0781 69.1256 50.6719C70.8756 47.2344 72.5788 43.6406 74.235 39.8906C75.9225 36.1406 77.7038 32.375 79.5788 28.5938C81.485 24.8125 83.5319 21.1094 85.7194 17.4844C87.9381 13.8594 90.4225 10.4531 93.1725 7.26562C90.8288 6.26563 88.2819 5.5 85.5319 4.96875C82.8131 4.40625 79.8913 4.125 76.7663 4.125C72.9538 4.125 69.2819 4.51562 65.7506 5.29688C62.2194 6.07813 58.9225 7.15625 55.86 8.53125C52.7975 9.90625 50.0006 11.5156 47.4694 13.3594C44.9381 15.2031 42.7663 17.2031 40.9538 19.3594C39.1725 21.4844 37.7819 23.7188 36.7819 26.0625C35.8131 28.375 35.3288 30.6875 35.3288 33C35.3288 34.5 35.6256 35.9219 36.2194 37.2656C36.8131 38.6094 37.6256 39.7969 38.6569 40.8281C39.6881 41.8281 40.9069 42.625 42.3131 43.2188C43.7194 43.8125 45.2506 44.1094 46.9069 44.1094C48.1881 44.1094 49.4538 43.9688 50.7038 43.6875C51.985 43.375 53.2038 43 54.36 42.5625C55.5163 42.125 56.5944 41.6562 57.5944 41.1562C58.5944 40.625 59.4694 40.1406 60.2194 39.7031C60.9694 39.2344 61.5475 38.8594 61.9538 38.5781C62.3913 38.2656 62.6256 38.0938 62.6569 38.0625L64.1569 40.0312C62.6881 41 61.1569 41.9375 59.5631 42.8438C58.0006 43.7188 56.3756 44.5156 54.6881 45.2344C53.0006 45.9219 51.2506 46.4844 49.4381 46.9219C47.6256 47.3281 45.7819 47.5312 43.9069 47.5312C42.0319 47.5312 40.2506 47.2188 38.5631 46.5938C36.8756 45.9375 35.3913 45.0312 34.11 43.875C32.86 42.6875 31.86 41.2812 31.11 39.6562C30.36 38.0312 29.985 36.2344 29.985 34.2656C29.985 32.0156 30.485 29.6562 31.485 27.1875C32.5163 24.7188 33.9694 22.2812 35.8444 19.875C37.7506 17.4375 40.0788 15.125 42.8288 12.9375C45.5788 10.75 48.6725 8.82812 52.11 7.17188C55.5788 5.48438 59.3756 4.15625 63.5006 3.1875C67.6569 2.1875 72.0788 1.6875 76.7663 1.6875C80.1725 1.6875 83.3756 2.01562 86.3756 2.67188C89.4069 3.29687 92.235 4.20313 94.86 5.39062C96.6413 3.48437 98.5631 1.70312 100.626 0.046875L102.079 1.59375ZM111.126 35.2969C111.126 32.3906 110.798 29.625 110.141 27C109.485 24.375 108.516 21.9375 107.235 19.6875C105.985 17.4375 104.438 15.3906 102.594 13.5469C100.751 11.7031 98.6413 10.125 96.2663 8.8125C93.985 12.0938 91.9069 15.5625 90.0319 19.2188C88.1569 22.875 86.3913 26.5781 84.735 30.3281C83.0788 34.0781 81.4538 37.7969 79.86 41.4844C78.2663 45.1719 76.5944 48.7031 74.8444 52.0781C73.1256 55.4219 71.2506 58.5469 69.2194 61.4531C67.1881 64.3281 64.9069 66.8281 62.3756 68.9531C64.8756 69.6406 67.3756 70.2344 69.8756 70.7344C72.3756 71.2656 74.9538 71.5312 77.61 71.5312C83.11 71.5312 87.9538 70.5938 92.1413 68.7188C96.3288 66.8125 99.8288 64.2344 102.641 60.9844C105.454 57.7031 107.563 53.8594 108.969 49.4531C110.407 45.0469 111.126 40.3281 111.126 35.2969ZM42.1725 73.5469C44.7038 73.5469 47.0163 73.1875 49.11 72.4688C51.235 71.7812 53.2038 70.7812 55.0163 69.4688C52.9538 68.9375 50.985 68.5 49.11 68.1562C47.235 67.7812 45.4381 67.5938 43.7194 67.5938C41.2819 67.5938 39.4538 67.9219 38.235 68.5781C37.0475 69.2031 36.4538 69.9688 36.4538 70.875C36.4538 71.5938 36.8756 72.2188 37.7194 72.75C38.5944 73.2812 40.0788 73.5469 42.1725 73.5469Z" fill="#111111"/>
</svg>
